<?xml version="1.0" encoding="utf-8"?>
<!-- Generator: Adobe Illustrator 25.2.0, SVG Export Plug-In . SVG Version: 6.00 Build 0)  -->
<svg version="1.1" xmlns="http://www.w3.org/2000/svg" xmlns:xlink="http://www.w3.org/1999/xlink" x="0px" y="0px"
	 viewBox="0 0 900 400" style="enable-background:new 0 0 900 400;" xml:space="preserve">
<style type="text/css">
	.st0{fill:#336699;}
	.st1{fill:#0099CC;}
	.st2{fill:#00CCFF;}
	.st3{fill:#3399FF;}
</style>
<g id="Слой_1">
	<path class="st0" d="M0.5,174.5c89.87-39.27,156.63-40.19,202-33c23.38,3.71,43.7,9.99,95,17c84.27,11.52,115.74,6.38,128,4
		c6.32-1.23,60.5-13.5,71.5-26.5c27.62-32.64,44-33,104-14c20.91,6.62,42.81,32.65,82.5,35.5c44.46,3.2,59.43-25.33,117-38
		c37.27-8.2,71.73-5.21,100,1V400H0L0.5,174.5z"/>
</g>
<g id="Слой_2">
	<path class="st1" d="M0.5,207.5c50.53-41.64,89.53-48.03,116-46c34.14,2.62,46.39,19.17,82,16c42.62-3.79,48.31-29.56,86-38
		c55.64-12.46,69.34,37.85,143,44c39.18,3.27,43.63-10.27,162-37c45.72-10.32,56.41-17.86,79-16c48.5,3.99,64.76,32.47,106,44
		c28.47,7.96,71.86,8.68,135-27l-9,252.5H0L0.5,207.5z"/>
</g>
<g id="Слой_3">
	<path class="st2" d="M0,153c20.04,12.65,30.95,27.97,73,39c56.38,14.79,113.78,38.13,162,34c62.45-5.35,75.28-38.8,142-44
		c25.49-1.99,36.81,11.12,64.69,19.48c11.55,3.46,35.49,7.09,57.31,6.52c56.91-1.5,60.51-38.04,128-54
		c52.17-12.33,98.38-1.94,108.85,0.61c11.17,2.71,20.09,5.94,36.15,11.39c34.89,11.86,53.8,32.88,93,31c21.11-1.01,38.07-8.18,49-14
		l-13.5,217H0L0,153z"/>
</g>
<g id="Слой_4">
	<path class="st3" d="M-14,232c31.73-8.74,80.72-19.33,141-20c60.89-0.68,79.54,9.36,167,17c31.84,2.78,98.37,8.37,178,4
		c73.54-4.03,67.33-11.57,183-23c107.37-10.61,153.95-8.2,202,12c27.47,11.55,47.97,25.78,61,36l-20.5,174H-3L-14,232z"/>
</g>
</svg>
