<?xml version="1.0" encoding="utf-8"?>
<!-- Generator: Adobe Illustrator 25.2.0, SVG Export Plug-In . SVG Version: 6.00 Build 0)  -->
<svg version="1.1" id="Слой_1" xmlns="http://www.w3.org/2000/svg" xmlns:xlink="http://www.w3.org/1999/xlink" x="0px" y="0px"
	 viewBox="0 0 1000 200" style="enable-background:new 0 0 1000 200;" xml:space="preserve">
<style type="text/css">
	.st0{fill:#29ABE2;}
</style>
<path class="st0" d="M1000,200V52l0,0c-14.36-20.99-56.5-7.31-77.17,7.52l-0.28,0.2c-15.96,11.45-36.23,15.06-55.19,9.9
	c-3.73-1.01-7.43-2.1-11.12-3.26c-26.9-8.44-56.09-7.34-82.52,3.44l-22.49,9.17c-33.41,13.62-70.46,15.47-105.06,5.25l-38.72-11.44
	l-31.86-9.41c-36.29-10.72-75.45-5.31-107.47,14.86l-9.86,6.21c-29.26,18.42-66.43,18.7-95.96,0.7l-11.66-7.11
	c-31.37-19.11-71.13-17.62-100.98,3.78l-18.44,13.23c-19.49,13.98-45.78,13.76-65.05-0.53l0,0c-30.34-22.52-71.62-19.06-97.87,5.79
	c-5.74,5.44-15.15,3.39-18.04-3.97l0,0C43.1,78.07,8.55,69.36,0,87v13v100H1000z"/>
</svg>
