<?xml version="1.0" encoding="utf-8"?>
<!-- Generator: Adobe Illustrator 25.2.0, SVG Export Plug-In . SVG Version: 6.00 Build 0)  -->
<svg version="1.1" xmlns="http://www.w3.org/2000/svg" xmlns:xlink="http://www.w3.org/1999/xlink" x="0px" y="0px"
	 viewBox="0 0 900 600" style="enable-background:new 0 0 900 600;" xml:space="preserve">
<style type="text/css">
	.st0{fill:#00CCFF;}
	.st1{fill:#336699;}
	.st2{fill:#3399FF;}
</style>
<g id="Слой_1">
	<path class="st0" d="M706.5,0.5c21.23,15.7,57.76,48,75,100c2.95,8.91,8.35,25.62,9,48c1.47,51.1-23.07,89.37-38,112
		c-38.73,58.69-60.47,46.11-87,95c-25.29,46.62-8.96,64.37-37,101c-14.39,18.8-35.59,31.53-78,57c-46.15,27.72-70.15,34.53-91,64
		c-10.8,15.26-16.18,30.13-19,40H900V0.5c-46.92,0-93.85,0-140.77,0C741.65,0.5,724.08,0.5,706.5,0.5z"/>
</g>
<g id="Слой_2">
	<path class="st1" d="M490,600c89.63-4.71,127.16-32.05,144-59c25.32-40.51-1.4-71.67,26-116c33.31-53.91,88.9-33.84,127-91
		c28.89-43.34,23.96-95.41,22-110c-7.96-59.3-44.04-74.75-49-129c-3.66-40.03,12.11-73.98,24.65-95L900,0.5V600"/>
</g>
<g id="Слой_4">
	<path class="st2" d="M960,354"/>
	<path class="st2" d="M917,617.5V-9h-65c-11.04,14.73-25.24,37.66-32,68c-11.05,49.58,9.27,67.18,4,117
		c-5.94,56.22-33.93,53.81-48,120c-11.86,55.77,7.99,57.61-3,119c-11.07,61.83-34.11,76.27-35,128c-0.61,35.79,9.8,64.93,18,83"/>
</g>
<g id="Слой_3">
	<path class="st2" d="M0,600l922,2.18V498c-68.52-18.49-119.43-13.02-154-4c-50.83,13.26-61.13,32.81-108,38
		c-53.86,5.96-68.03-16.8-141-31c-89.1-17.34-166.71-2.63-190,2c-89.28,17.75-110.96,49.12-156,32c-38.9-14.79-43.72-46.18-87-59
		c-36.98-10.96-72.97,0.26-97,11"/>
</g>
</svg>
